G04 #@! TF.GenerationSoftware,KiCad,Pcbnew,(6.0.0)*
G04 #@! TF.CreationDate,2022-05-03T12:42:37-07:00*
G04 #@! TF.ProjectId,Teensy-Breakout-v3,5465656e-7379-42d4-9272-65616b6f7574,rev?*
G04 #@! TF.SameCoordinates,Original*
G04 #@! TF.FileFunction,Copper,L2,Inr*
G04 #@! TF.FilePolarity,Positive*
%FSLAX46Y46*%
G04 Gerber Fmt 4.6, Leading zero omitted, Abs format (unit mm)*
G04 Created by KiCad (PCBNEW (6.0.0)) date 2022-05-03 12:42:37*
%MOMM*%
%LPD*%
G01*
G04 APERTURE LIST*
G04 #@! TA.AperFunction,ComponentPad*
%ADD10C,3.175000*%
G04 #@! TD*
G04 #@! TA.AperFunction,ComponentPad*
%ADD11O,1.016000X1.778000*%
G04 #@! TD*
G04 #@! TA.AperFunction,ComponentPad*
%ADD12C,6.985000*%
G04 #@! TD*
G04 #@! TA.AperFunction,ComponentPad*
%ADD13O,1.524000X1.524000*%
G04 #@! TD*
G04 #@! TA.AperFunction,ComponentPad*
%ADD14O,1.700000X1.700000*%
G04 #@! TD*
G04 #@! TA.AperFunction,ComponentPad*
%ADD15R,1.700000X1.700000*%
G04 #@! TD*
G04 #@! TA.AperFunction,ViaPad*
%ADD16C,1.397000*%
G04 #@! TD*
G04 #@! TA.AperFunction,ViaPad*
%ADD17C,0.762000*%
G04 #@! TD*
G04 #@! TA.AperFunction,Conductor*
%ADD18C,0.254000*%
G04 #@! TD*
G04 APERTURE END LIST*
D10*
X151765000Y-123888500D03*
X151765000Y-83248500D03*
D11*
X98044000Y-139230100D03*
X98044000Y-137248900D03*
X99314000Y-139230100D03*
X99314000Y-137248900D03*
X100584000Y-139230100D03*
X100584000Y-137248900D03*
X101854000Y-139230100D03*
X101854000Y-137248900D03*
X103124000Y-139230100D03*
X103124000Y-137248900D03*
X104394000Y-139230100D03*
X104394000Y-137248900D03*
X105664000Y-139230100D03*
X105664000Y-137248900D03*
X106934000Y-139230100D03*
X106934000Y-137248900D03*
X108204000Y-139230100D03*
X108204000Y-137248900D03*
X109474000Y-139230100D03*
X109474000Y-137248900D03*
X110744000Y-139230100D03*
X110744000Y-137248900D03*
X112014000Y-139230100D03*
X112014000Y-137248900D03*
X113284000Y-139230100D03*
X113284000Y-137248900D03*
D12*
X83185000Y-139065000D03*
D10*
X134620000Y-137477500D03*
X142875000Y-137477500D03*
D13*
X123825000Y-72199500D03*
X123825000Y-69659500D03*
X123825000Y-67119500D03*
X123825000Y-62039500D03*
X126365000Y-59499500D03*
X126365000Y-62039500D03*
X126365000Y-64579500D03*
X126365000Y-67119500D03*
X126365000Y-69659500D03*
X126365000Y-72199500D03*
X126365000Y-74739500D03*
X126365000Y-77279500D03*
X126365000Y-79819500D03*
X126365000Y-82359500D03*
X126365000Y-84899500D03*
X126365000Y-87439500D03*
X126365000Y-89979500D03*
X126365000Y-92519500D03*
X123825000Y-92519500D03*
X121285000Y-92519500D03*
X118745000Y-92519500D03*
X116205000Y-92519500D03*
X113665000Y-92519500D03*
X111125000Y-92519500D03*
X111125000Y-89979500D03*
X111125000Y-87439500D03*
X111125000Y-84899500D03*
X111125000Y-82359500D03*
X111125000Y-79819500D03*
X111125000Y-77279500D03*
X111125000Y-74739500D03*
X111125000Y-72199500D03*
X111125000Y-69659500D03*
X111125000Y-67119500D03*
X111125000Y-64579500D03*
X111125000Y-62039500D03*
X111125000Y-59499500D03*
D10*
X151765000Y-113728500D03*
X151765000Y-108648500D03*
X151765000Y-103568500D03*
X151765000Y-98488500D03*
X151765000Y-93408500D03*
X151765000Y-88328500D03*
X151765000Y-118808500D03*
X88900000Y-123888500D03*
X88900000Y-118808500D03*
X88900000Y-113728500D03*
X88900000Y-108648500D03*
X88900000Y-103568500D03*
X88900000Y-98488500D03*
X88900000Y-93408500D03*
X88900000Y-88328500D03*
X88900000Y-83248500D03*
X88900000Y-78168500D03*
X88900000Y-128968500D03*
X151765000Y-68008500D03*
X88900000Y-73088500D03*
X151765000Y-78168500D03*
X151765000Y-73088500D03*
D12*
X83185000Y-62865000D03*
X159385000Y-139065000D03*
X159385000Y-62865000D03*
D10*
X151765000Y-134048500D03*
X151765000Y-128968500D03*
D14*
X138049000Y-84772500D03*
X135509000Y-84772500D03*
X138049000Y-82232500D03*
X135509000Y-82232500D03*
X138049000Y-79692500D03*
X135509000Y-79692500D03*
X138049000Y-77152500D03*
D15*
X135509000Y-77152500D03*
X135509000Y-102552500D03*
D14*
X138049000Y-102552500D03*
X135509000Y-105092500D03*
X138049000Y-105092500D03*
X135509000Y-107632500D03*
X138049000Y-107632500D03*
X135509000Y-110172500D03*
X138049000Y-110172500D03*
D15*
X138049000Y-89852500D03*
D14*
X138049000Y-92392500D03*
X138049000Y-94932500D03*
X138049000Y-97472500D03*
D15*
X100965000Y-88328500D03*
D14*
X100965000Y-90868500D03*
X100965000Y-93408500D03*
X100965000Y-95948500D03*
X100965000Y-98488500D03*
X100965000Y-101028500D03*
X100965000Y-103568500D03*
X100965000Y-106108500D03*
X100965000Y-108648500D03*
X100965000Y-111188500D03*
X100965000Y-113728500D03*
D15*
X128016000Y-137477500D03*
D14*
X125476000Y-137477500D03*
D16*
X110871000Y-129095500D03*
X121285000Y-139890500D03*
X138430000Y-133286500D03*
D17*
X142011400Y-117665500D03*
D16*
X138430000Y-129476500D03*
D17*
X138557000Y-61912500D03*
X147320000Y-61150500D03*
D16*
X135763000Y-74485500D03*
X131572000Y-77279500D03*
X124460000Y-97218500D03*
X129794000Y-79819500D03*
X133477000Y-75120500D03*
D18*
X103480000Y-141312500D02*
X104394000Y-140398500D01*
X104394000Y-140398500D02*
X104394000Y-138874500D01*
X96595000Y-141312500D02*
X103480000Y-141312500D01*
X95758000Y-108775500D02*
X95758000Y-140475500D01*
X100965000Y-103568500D02*
X95758000Y-108775500D01*
X95758000Y-140475500D02*
X96595000Y-141312500D01*
X95295000Y-143112500D02*
X105490000Y-143112500D01*
X93595000Y-141412500D02*
X95295000Y-143112500D01*
X93595000Y-95698500D02*
X93595000Y-141412500D01*
X105490000Y-143112500D02*
X108204000Y-140398500D01*
X100965000Y-88328500D02*
X93595000Y-95698500D01*
X108204000Y-140398500D02*
X108204000Y-138874500D01*
X106934000Y-140398500D02*
X106934000Y-138874500D01*
X104820000Y-142512500D02*
X106934000Y-140398500D01*
X94295000Y-141112500D02*
X95695000Y-142512500D01*
X95695000Y-142512500D02*
X104820000Y-142512500D01*
X94295000Y-100078500D02*
X94295000Y-141112500D01*
X100965000Y-93408500D02*
X94295000Y-100078500D01*
X94995009Y-104458491D02*
X100965000Y-98488500D01*
X94995009Y-140712495D02*
X94995009Y-104458491D01*
X103124000Y-139489893D02*
X103124000Y-138874500D01*
X96395000Y-113218500D02*
X96395000Y-139979500D01*
X96395000Y-139979500D02*
X97195000Y-140779500D01*
X97195000Y-140779500D02*
X101834393Y-140779500D01*
X101834393Y-140779500D02*
X103124000Y-139489893D01*
X100965000Y-108648500D02*
X96395000Y-113218500D01*
X106934000Y-134651500D02*
X106395000Y-134112500D01*
X106395000Y-134112500D02*
X106395000Y-96298500D01*
X106395000Y-96298500D02*
X100965000Y-90868500D01*
X106934000Y-137604500D02*
X106934000Y-134651500D01*
X105595000Y-137535500D02*
X105664000Y-137604500D01*
X100965000Y-95948500D02*
X105595000Y-100578500D01*
X105595000Y-100578500D02*
X105595000Y-137535500D01*
X104394000Y-134556500D02*
X104394000Y-137604500D01*
X104795000Y-134155500D02*
X104394000Y-134556500D01*
X100965000Y-101028500D02*
X104795000Y-104858500D01*
X104795000Y-104858500D02*
X104795000Y-134155500D01*
X103124000Y-134429500D02*
X103124000Y-137604500D01*
X103995000Y-133558500D02*
X103124000Y-134429500D01*
X103995000Y-109138500D02*
X103995000Y-133558500D01*
X100965000Y-106108500D02*
X103995000Y-109138500D01*
X101854000Y-134429500D02*
X101854000Y-137604500D01*
X103124000Y-133159500D02*
X101854000Y-134429500D01*
X100965000Y-111188500D02*
X103124000Y-113347500D01*
X103124000Y-113347500D02*
X103124000Y-133159500D01*
X143129000Y-120332500D02*
X151765000Y-128968500D01*
X139700000Y-110172500D02*
X143129000Y-113601500D01*
X143129000Y-113601500D02*
X143129000Y-120332500D01*
X138049000Y-110172500D02*
X139700000Y-110172500D01*
X144526000Y-112458500D02*
X139700000Y-107632500D01*
X144526000Y-116649500D02*
X144526000Y-112458500D01*
X139700000Y-107632500D02*
X138049000Y-107632500D01*
X151765000Y-123888500D02*
X144526000Y-116649500D01*
X145923000Y-112966500D02*
X151765000Y-118808500D01*
X145923000Y-111315500D02*
X145923000Y-112966500D01*
X139700000Y-105092500D02*
X145923000Y-111315500D01*
X138049000Y-105092500D02*
X139700000Y-105092500D01*
X110363000Y-134683500D02*
X109474000Y-135572500D01*
X109474000Y-135572500D02*
X109474000Y-137604500D01*
X116078000Y-134683500D02*
X110363000Y-134683500D01*
X121285000Y-139890500D02*
X116078000Y-134683500D01*
X132946378Y-77279500D02*
X135740378Y-74485500D01*
X131572000Y-77279500D02*
X132946378Y-77279500D01*
X129794000Y-77279500D02*
X131953000Y-75120500D01*
X129794000Y-79819500D02*
X129794000Y-77279500D01*
X131953000Y-75120500D02*
X133477000Y-75120500D01*
X136779000Y-103822500D02*
X138049000Y-105092500D01*
X116459000Y-103822500D02*
X136779000Y-103822500D01*
X111125000Y-98488500D02*
X116459000Y-103822500D01*
X111125000Y-92519500D02*
X111125000Y-98488500D01*
X117221000Y-106362500D02*
X109601000Y-98742500D01*
X136779000Y-106362500D02*
X117221000Y-106362500D01*
X138049000Y-107632500D02*
X136779000Y-106362500D01*
X109601000Y-98742500D02*
X109601000Y-91503500D01*
X109601000Y-91503500D02*
X111125000Y-89979500D01*
X108331000Y-90233500D02*
X111125000Y-87439500D01*
X108331000Y-99377500D02*
X108331000Y-90233500D01*
X107195000Y-100513500D02*
X108331000Y-99377500D01*
X107195000Y-133612500D02*
X107195000Y-100513500D01*
X108204000Y-134621500D02*
X107195000Y-133612500D01*
X108204000Y-137604500D02*
X108204000Y-134621500D01*
X104150000Y-141912500D02*
X96195000Y-141912500D01*
X105664000Y-140398500D02*
X104150000Y-141912500D01*
X96195000Y-141912500D02*
X94995000Y-140712500D01*
X105664000Y-138874500D02*
X105664000Y-140398500D01*
X117856000Y-108902500D02*
X108331000Y-99377500D01*
X138049000Y-110172500D02*
X136779000Y-108902500D01*
X136779000Y-108902500D02*
X117856000Y-108902500D01*
M02*
