G04 #@! TF.GenerationSoftware,KiCad,Pcbnew,(6.0.0)*
G04 #@! TF.CreationDate,2022-05-23T08:06:08-07:00*
G04 #@! TF.ProjectId,Teensy-Breakout-v4,5465656e-7379-42d4-9272-65616b6f7574,rev?*
G04 #@! TF.SameCoordinates,Original*
G04 #@! TF.FileFunction,Soldermask,Bot*
G04 #@! TF.FilePolarity,Negative*
%FSLAX46Y46*%
G04 Gerber Fmt 4.6, Leading zero omitted, Abs format (unit mm)*
G04 Created by KiCad (PCBNEW (6.0.0)) date 2022-05-23 08:06:08*
%MOMM*%
%LPD*%
G01*
G04 APERTURE LIST*
G04 Aperture macros list*
%AMRoundRect*
0 Rectangle with rounded corners*
0 $1 Rounding radius*
0 $2 $3 $4 $5 $6 $7 $8 $9 X,Y pos of 4 corners*
0 Add a 4 corners polygon primitive as box body*
4,1,4,$2,$3,$4,$5,$6,$7,$8,$9,$2,$3,0*
0 Add four circle primitives for the rounded corners*
1,1,$1+$1,$2,$3*
1,1,$1+$1,$4,$5*
1,1,$1+$1,$6,$7*
1,1,$1+$1,$8,$9*
0 Add four rect primitives between the rounded corners*
20,1,$1+$1,$2,$3,$4,$5,0*
20,1,$1+$1,$4,$5,$6,$7,0*
20,1,$1+$1,$6,$7,$8,$9,0*
20,1,$1+$1,$8,$9,$2,$3,0*%
G04 Aperture macros list end*
%ADD10C,7.086600*%
%ADD11C,3.276600*%
%ADD12O,1.625600X1.625600*%
%ADD13O,1.117600X1.879600*%
%ADD14RoundRect,0.050800X-0.850000X-0.850000X0.850000X-0.850000X0.850000X0.850000X-0.850000X0.850000X0*%
%ADD15O,1.801600X1.801600*%
%ADD16RoundRect,0.050800X-0.850000X0.850000X-0.850000X-0.850000X0.850000X-0.850000X0.850000X0.850000X0*%
%ADD17RoundRect,0.050800X0.850000X0.850000X-0.850000X0.850000X-0.850000X-0.850000X0.850000X-0.850000X0*%
G04 APERTURE END LIST*
D10*
X83185000Y-139065000D03*
D11*
X135382000Y-136842500D03*
X142875000Y-136842500D03*
D12*
X111125000Y-59499500D03*
X111125000Y-62039500D03*
X111125000Y-64579500D03*
X111125000Y-67119500D03*
X111125000Y-69659500D03*
X111125000Y-72199500D03*
X111125000Y-74739500D03*
X111125000Y-77279500D03*
X111125000Y-79819500D03*
X111125000Y-82359500D03*
X111125000Y-84899500D03*
X111125000Y-87439500D03*
X111125000Y-89979500D03*
X111125000Y-92519500D03*
X113665000Y-92519500D03*
X116205000Y-92519500D03*
X118745000Y-92519500D03*
X121285000Y-92519500D03*
X123825000Y-92519500D03*
X126365000Y-92519500D03*
X126365000Y-89979500D03*
X126365000Y-87439500D03*
X126365000Y-84899500D03*
X126365000Y-82359500D03*
X126365000Y-79819500D03*
X126365000Y-77279500D03*
X126365000Y-74739500D03*
X126365000Y-72199500D03*
X126365000Y-69659500D03*
X126365000Y-67119500D03*
X126365000Y-64579500D03*
X126365000Y-62039500D03*
X126365000Y-59499500D03*
X123825000Y-62039500D03*
X123825000Y-67119500D03*
X123825000Y-69659500D03*
X123825000Y-72199500D03*
D11*
X153670000Y-98488500D03*
X153670000Y-88328500D03*
X153670000Y-83248500D03*
X153670000Y-108648500D03*
X153670000Y-103568500D03*
X88900000Y-123888500D03*
X88900000Y-118808500D03*
X88900000Y-113728500D03*
X88900000Y-108648500D03*
X88900000Y-103568500D03*
X88900000Y-98488500D03*
X88900000Y-93408500D03*
X88900000Y-88328500D03*
X88900000Y-83248500D03*
X88900000Y-78168500D03*
D13*
X113284000Y-137248900D03*
X113284000Y-139230100D03*
X112014000Y-137248900D03*
X112014000Y-139230100D03*
X110744000Y-137248900D03*
X110744000Y-139230100D03*
X109474000Y-137248900D03*
X109474000Y-139230100D03*
X108204000Y-137248900D03*
X108204000Y-139230100D03*
X106934000Y-137248900D03*
X106934000Y-139230100D03*
X105664000Y-137248900D03*
X105664000Y-139230100D03*
X104394000Y-137248900D03*
X104394000Y-139230100D03*
X103124000Y-137248900D03*
X103124000Y-139230100D03*
X101854000Y-137248900D03*
X101854000Y-139230100D03*
X100584000Y-137248900D03*
X100584000Y-139230100D03*
X99314000Y-137248900D03*
X99314000Y-139230100D03*
X98044000Y-137248900D03*
X98044000Y-139230100D03*
D11*
X88900000Y-128968500D03*
X153670000Y-73088500D03*
X88900000Y-73088500D03*
D10*
X83185000Y-62865000D03*
X159385000Y-139065000D03*
X159385000Y-62865000D03*
D11*
X153670000Y-123888500D03*
X153670000Y-113728500D03*
D14*
X139319000Y-82867500D03*
D15*
X141859000Y-82867500D03*
X139319000Y-85407500D03*
X141859000Y-85407500D03*
X139319000Y-87947500D03*
X141859000Y-87947500D03*
X139319000Y-90487500D03*
X141859000Y-90487500D03*
D14*
X139319000Y-108267500D03*
D15*
X141859000Y-108267500D03*
X139319000Y-110807500D03*
X141859000Y-110807500D03*
X139319000Y-113347500D03*
X141859000Y-113347500D03*
X139319000Y-115887500D03*
X141859000Y-115887500D03*
D14*
X98425000Y-88328500D03*
D15*
X98425000Y-90868500D03*
X98425000Y-93408500D03*
X98425000Y-95948500D03*
X98425000Y-98488500D03*
X98425000Y-101028500D03*
X98425000Y-103568500D03*
X98425000Y-106108500D03*
X98425000Y-108648500D03*
X98425000Y-111188500D03*
X98425000Y-113728500D03*
D16*
X128016000Y-136842500D03*
D15*
X125476000Y-136842500D03*
D16*
X128704500Y-108453000D03*
D15*
X128704500Y-110993000D03*
X126164500Y-108453000D03*
X126164500Y-110993000D03*
X123624500Y-108453000D03*
X123624500Y-110993000D03*
X121084500Y-108453000D03*
X121084500Y-110993000D03*
D11*
X100787200Y-121412000D03*
X110947200Y-121412000D03*
X136347200Y-121412000D03*
X101750000Y-67945000D03*
X121107200Y-121412000D03*
X94130000Y-67945000D03*
D16*
X116004500Y-108453000D03*
D15*
X116004500Y-110993000D03*
X113464500Y-108453000D03*
X113464500Y-110993000D03*
X110924500Y-108453000D03*
X110924500Y-110993000D03*
X108384500Y-108453000D03*
X108384500Y-110993000D03*
D11*
X105867200Y-121412000D03*
X131267200Y-121412000D03*
X116027200Y-121412000D03*
X126187200Y-121412000D03*
D17*
X130683000Y-88646000D03*
D15*
X130683000Y-86106000D03*
G36*
X101332009Y-138665530D02*
G01*
X101332369Y-138667338D01*
X101303175Y-138767826D01*
X101297200Y-138849178D01*
X101297200Y-139610968D01*
X101316244Y-139749991D01*
X101315489Y-139751842D01*
X101313507Y-139752114D01*
X101312702Y-139751512D01*
X101273985Y-139703185D01*
X101214672Y-139686959D01*
X101157096Y-139708715D01*
X101126467Y-139750411D01*
X101109415Y-139794147D01*
X101107855Y-139795397D01*
X101105991Y-139794670D01*
X101105631Y-139792862D01*
X101134825Y-139692374D01*
X101140800Y-139611022D01*
X101140800Y-138849232D01*
X101121756Y-138710209D01*
X101122511Y-138708358D01*
X101124493Y-138708086D01*
X101125298Y-138708688D01*
X101164015Y-138757015D01*
X101223328Y-138773241D01*
X101280904Y-138751485D01*
X101311533Y-138709789D01*
X101328585Y-138666053D01*
X101330145Y-138664803D01*
X101332009Y-138665530D01*
G37*
G36*
X108952009Y-138665530D02*
G01*
X108952369Y-138667338D01*
X108923175Y-138767826D01*
X108917200Y-138849178D01*
X108917200Y-139610968D01*
X108936244Y-139749991D01*
X108935489Y-139751842D01*
X108933507Y-139752114D01*
X108932702Y-139751512D01*
X108893985Y-139703185D01*
X108834672Y-139686959D01*
X108777096Y-139708715D01*
X108746467Y-139750411D01*
X108729415Y-139794147D01*
X108727855Y-139795397D01*
X108725991Y-139794670D01*
X108725631Y-139792862D01*
X108754825Y-139692374D01*
X108760800Y-139611022D01*
X108760800Y-138849232D01*
X108741756Y-138710209D01*
X108742511Y-138708358D01*
X108744493Y-138708086D01*
X108745298Y-138708688D01*
X108784015Y-138757015D01*
X108843328Y-138773241D01*
X108900904Y-138751485D01*
X108931533Y-138709789D01*
X108948585Y-138666053D01*
X108950145Y-138664803D01*
X108952009Y-138665530D01*
G37*
G36*
X105142009Y-138665530D02*
G01*
X105142369Y-138667338D01*
X105113175Y-138767826D01*
X105107200Y-138849178D01*
X105107200Y-139610968D01*
X105126244Y-139749991D01*
X105125489Y-139751842D01*
X105123507Y-139752114D01*
X105122702Y-139751512D01*
X105083985Y-139703185D01*
X105024672Y-139686959D01*
X104967096Y-139708715D01*
X104936467Y-139750411D01*
X104919415Y-139794147D01*
X104917855Y-139795397D01*
X104915991Y-139794670D01*
X104915631Y-139792862D01*
X104944825Y-139692374D01*
X104950800Y-139611022D01*
X104950800Y-138849232D01*
X104931756Y-138710209D01*
X104932511Y-138708358D01*
X104934493Y-138708086D01*
X104935298Y-138708688D01*
X104974015Y-138757015D01*
X105033328Y-138773241D01*
X105090904Y-138751485D01*
X105121533Y-138709789D01*
X105138585Y-138666053D01*
X105140145Y-138664803D01*
X105142009Y-138665530D01*
G37*
G36*
X107682009Y-138665530D02*
G01*
X107682369Y-138667338D01*
X107653175Y-138767826D01*
X107647200Y-138849178D01*
X107647200Y-139610968D01*
X107666244Y-139749991D01*
X107665489Y-139751842D01*
X107663507Y-139752114D01*
X107662702Y-139751512D01*
X107623985Y-139703185D01*
X107564672Y-139686959D01*
X107507096Y-139708715D01*
X107476467Y-139750411D01*
X107459415Y-139794147D01*
X107457855Y-139795397D01*
X107455991Y-139794670D01*
X107455631Y-139792862D01*
X107484825Y-139692374D01*
X107490800Y-139611022D01*
X107490800Y-138849232D01*
X107471756Y-138710209D01*
X107472511Y-138708358D01*
X107474493Y-138708086D01*
X107475298Y-138708688D01*
X107514015Y-138757015D01*
X107573328Y-138773241D01*
X107630904Y-138751485D01*
X107661533Y-138709789D01*
X107678585Y-138666053D01*
X107680145Y-138664803D01*
X107682009Y-138665530D01*
G37*
G36*
X110222009Y-138665530D02*
G01*
X110222369Y-138667338D01*
X110193175Y-138767826D01*
X110187200Y-138849178D01*
X110187200Y-139610968D01*
X110206244Y-139749991D01*
X110205489Y-139751842D01*
X110203507Y-139752114D01*
X110202702Y-139751512D01*
X110163985Y-139703185D01*
X110104672Y-139686959D01*
X110047096Y-139708715D01*
X110016467Y-139750411D01*
X109999415Y-139794147D01*
X109997855Y-139795397D01*
X109995991Y-139794670D01*
X109995631Y-139792862D01*
X110024825Y-139692374D01*
X110030800Y-139611022D01*
X110030800Y-138849232D01*
X110011756Y-138710209D01*
X110012511Y-138708358D01*
X110014493Y-138708086D01*
X110015298Y-138708688D01*
X110054015Y-138757015D01*
X110113328Y-138773241D01*
X110170904Y-138751485D01*
X110201533Y-138709789D01*
X110218585Y-138666053D01*
X110220145Y-138664803D01*
X110222009Y-138665530D01*
G37*
G36*
X100062009Y-138665530D02*
G01*
X100062369Y-138667338D01*
X100033175Y-138767826D01*
X100027200Y-138849178D01*
X100027200Y-139610968D01*
X100046244Y-139749991D01*
X100045489Y-139751842D01*
X100043507Y-139752114D01*
X100042702Y-139751512D01*
X100003985Y-139703185D01*
X99944672Y-139686959D01*
X99887096Y-139708715D01*
X99856467Y-139750411D01*
X99839415Y-139794147D01*
X99837855Y-139795397D01*
X99835991Y-139794670D01*
X99835631Y-139792862D01*
X99864825Y-139692374D01*
X99870800Y-139611022D01*
X99870800Y-138849232D01*
X99851756Y-138710209D01*
X99852511Y-138708358D01*
X99854493Y-138708086D01*
X99855298Y-138708688D01*
X99894015Y-138757015D01*
X99953328Y-138773241D01*
X100010904Y-138751485D01*
X100041533Y-138709789D01*
X100058585Y-138666053D01*
X100060145Y-138664803D01*
X100062009Y-138665530D01*
G37*
G36*
X102602009Y-138665530D02*
G01*
X102602369Y-138667338D01*
X102573175Y-138767826D01*
X102567200Y-138849178D01*
X102567200Y-139610968D01*
X102586244Y-139749991D01*
X102585489Y-139751842D01*
X102583507Y-139752114D01*
X102582702Y-139751512D01*
X102543985Y-139703185D01*
X102484672Y-139686959D01*
X102427096Y-139708715D01*
X102396467Y-139750411D01*
X102379415Y-139794147D01*
X102377855Y-139795397D01*
X102375991Y-139794670D01*
X102375631Y-139792862D01*
X102404825Y-139692374D01*
X102410800Y-139611022D01*
X102410800Y-138849232D01*
X102391756Y-138710209D01*
X102392511Y-138708358D01*
X102394493Y-138708086D01*
X102395298Y-138708688D01*
X102434015Y-138757015D01*
X102493328Y-138773241D01*
X102550904Y-138751485D01*
X102581533Y-138709789D01*
X102598585Y-138666053D01*
X102600145Y-138664803D01*
X102602009Y-138665530D01*
G37*
G36*
X103872009Y-138665530D02*
G01*
X103872369Y-138667338D01*
X103843175Y-138767826D01*
X103837200Y-138849178D01*
X103837200Y-139610968D01*
X103856244Y-139749991D01*
X103855489Y-139751842D01*
X103853507Y-139752114D01*
X103852702Y-139751512D01*
X103813985Y-139703185D01*
X103754672Y-139686959D01*
X103697096Y-139708715D01*
X103666467Y-139750411D01*
X103649415Y-139794147D01*
X103647855Y-139795397D01*
X103645991Y-139794670D01*
X103645631Y-139792862D01*
X103674825Y-139692374D01*
X103680800Y-139611022D01*
X103680800Y-138849232D01*
X103661756Y-138710209D01*
X103662511Y-138708358D01*
X103664493Y-138708086D01*
X103665298Y-138708688D01*
X103704015Y-138757015D01*
X103763328Y-138773241D01*
X103820904Y-138751485D01*
X103851533Y-138709789D01*
X103868585Y-138666053D01*
X103870145Y-138664803D01*
X103872009Y-138665530D01*
G37*
G36*
X98792009Y-138665530D02*
G01*
X98792369Y-138667338D01*
X98763175Y-138767826D01*
X98757200Y-138849178D01*
X98757200Y-139610968D01*
X98776244Y-139749991D01*
X98775489Y-139751842D01*
X98773507Y-139752114D01*
X98772702Y-139751512D01*
X98733985Y-139703185D01*
X98674672Y-139686959D01*
X98617096Y-139708715D01*
X98586467Y-139750411D01*
X98569415Y-139794147D01*
X98567855Y-139795397D01*
X98565991Y-139794670D01*
X98565631Y-139792862D01*
X98594825Y-139692374D01*
X98600800Y-139611022D01*
X98600800Y-138849232D01*
X98581756Y-138710209D01*
X98582511Y-138708358D01*
X98584493Y-138708086D01*
X98585298Y-138708688D01*
X98624015Y-138757015D01*
X98683328Y-138773241D01*
X98740904Y-138751485D01*
X98771533Y-138709789D01*
X98788585Y-138666053D01*
X98790145Y-138664803D01*
X98792009Y-138665530D01*
G37*
G36*
X106412009Y-138665530D02*
G01*
X106412369Y-138667338D01*
X106383175Y-138767826D01*
X106377200Y-138849178D01*
X106377200Y-139610968D01*
X106396244Y-139749991D01*
X106395489Y-139751842D01*
X106393507Y-139752114D01*
X106392702Y-139751512D01*
X106353985Y-139703185D01*
X106294672Y-139686959D01*
X106237096Y-139708715D01*
X106206467Y-139750411D01*
X106189415Y-139794147D01*
X106187855Y-139795397D01*
X106185991Y-139794670D01*
X106185631Y-139792862D01*
X106214825Y-139692374D01*
X106220800Y-139611022D01*
X106220800Y-138849232D01*
X106201756Y-138710209D01*
X106202511Y-138708358D01*
X106204493Y-138708086D01*
X106205298Y-138708688D01*
X106244015Y-138757015D01*
X106303328Y-138773241D01*
X106360904Y-138751485D01*
X106391533Y-138709789D01*
X106408585Y-138666053D01*
X106410145Y-138664803D01*
X106412009Y-138665530D01*
G37*
G36*
X111492009Y-138665530D02*
G01*
X111492369Y-138667338D01*
X111463175Y-138767826D01*
X111457200Y-138849178D01*
X111457200Y-139610968D01*
X111476244Y-139749991D01*
X111475489Y-139751842D01*
X111473507Y-139752114D01*
X111472702Y-139751512D01*
X111433985Y-139703185D01*
X111374672Y-139686959D01*
X111317096Y-139708715D01*
X111286467Y-139750411D01*
X111269415Y-139794147D01*
X111267855Y-139795397D01*
X111265991Y-139794670D01*
X111265631Y-139792862D01*
X111294825Y-139692374D01*
X111300800Y-139611022D01*
X111300800Y-138849232D01*
X111281756Y-138710209D01*
X111282511Y-138708358D01*
X111284493Y-138708086D01*
X111285298Y-138708688D01*
X111324015Y-138757015D01*
X111383328Y-138773241D01*
X111440904Y-138751485D01*
X111471533Y-138709789D01*
X111488585Y-138666053D01*
X111490145Y-138664803D01*
X111492009Y-138665530D01*
G37*
G36*
X112762009Y-138665530D02*
G01*
X112762369Y-138667338D01*
X112733175Y-138767826D01*
X112727200Y-138849178D01*
X112727200Y-139610968D01*
X112746244Y-139749991D01*
X112745489Y-139751842D01*
X112743507Y-139752114D01*
X112742702Y-139751512D01*
X112703985Y-139703185D01*
X112644672Y-139686959D01*
X112587096Y-139708715D01*
X112556467Y-139750411D01*
X112539415Y-139794147D01*
X112537855Y-139795397D01*
X112535991Y-139794670D01*
X112535631Y-139792862D01*
X112564825Y-139692374D01*
X112570800Y-139611022D01*
X112570800Y-138849232D01*
X112551756Y-138710209D01*
X112552511Y-138708358D01*
X112554493Y-138708086D01*
X112555298Y-138708688D01*
X112594015Y-138757015D01*
X112653328Y-138773241D01*
X112710904Y-138751485D01*
X112741533Y-138709789D01*
X112758585Y-138666053D01*
X112760145Y-138664803D01*
X112762009Y-138665530D01*
G37*
G36*
X108518852Y-138089706D02*
G01*
X108519760Y-138091488D01*
X108519079Y-138092889D01*
X108518992Y-138092965D01*
X108518593Y-138093236D01*
X108407680Y-138150483D01*
X108364190Y-138194431D01*
X108354888Y-138255215D01*
X108383174Y-138310017D01*
X108406599Y-138327224D01*
X108431941Y-138340642D01*
X108433004Y-138342337D01*
X108432068Y-138344104D01*
X108430328Y-138344292D01*
X108319762Y-138304486D01*
X108169040Y-138293418D01*
X108020892Y-138323289D01*
X107891145Y-138389399D01*
X107889148Y-138389294D01*
X107888240Y-138387512D01*
X107888921Y-138386111D01*
X107889008Y-138386035D01*
X107889407Y-138385764D01*
X108000320Y-138328517D01*
X108043810Y-138284569D01*
X108053112Y-138223785D01*
X108024826Y-138168983D01*
X108001401Y-138151776D01*
X107976059Y-138138358D01*
X107974996Y-138136663D01*
X107975932Y-138134896D01*
X107977672Y-138134708D01*
X108088238Y-138174514D01*
X108238960Y-138185582D01*
X108387108Y-138155711D01*
X108516855Y-138089601D01*
X108518852Y-138089706D01*
G37*
G36*
X113598852Y-138089706D02*
G01*
X113599760Y-138091488D01*
X113599079Y-138092889D01*
X113598992Y-138092965D01*
X113598593Y-138093236D01*
X113487680Y-138150483D01*
X113444190Y-138194431D01*
X113434888Y-138255215D01*
X113463174Y-138310017D01*
X113486599Y-138327224D01*
X113511941Y-138340642D01*
X113513004Y-138342337D01*
X113512068Y-138344104D01*
X113510328Y-138344292D01*
X113399762Y-138304486D01*
X113249040Y-138293418D01*
X113100892Y-138323289D01*
X112971145Y-138389399D01*
X112969148Y-138389294D01*
X112968240Y-138387512D01*
X112968921Y-138386111D01*
X112969008Y-138386035D01*
X112969407Y-138385764D01*
X113080320Y-138328517D01*
X113123810Y-138284569D01*
X113133112Y-138223785D01*
X113104826Y-138168983D01*
X113081401Y-138151776D01*
X113056059Y-138138358D01*
X113054996Y-138136663D01*
X113055932Y-138134896D01*
X113057672Y-138134708D01*
X113168238Y-138174514D01*
X113318960Y-138185582D01*
X113467108Y-138155711D01*
X113596855Y-138089601D01*
X113598852Y-138089706D01*
G37*
G36*
X102168852Y-138089706D02*
G01*
X102169760Y-138091488D01*
X102169079Y-138092889D01*
X102168992Y-138092965D01*
X102168593Y-138093236D01*
X102057680Y-138150483D01*
X102014190Y-138194431D01*
X102004888Y-138255215D01*
X102033174Y-138310017D01*
X102056599Y-138327224D01*
X102081941Y-138340642D01*
X102083004Y-138342337D01*
X102082068Y-138344104D01*
X102080328Y-138344292D01*
X101969762Y-138304486D01*
X101819040Y-138293418D01*
X101670892Y-138323289D01*
X101541145Y-138389399D01*
X101539148Y-138389294D01*
X101538240Y-138387512D01*
X101538921Y-138386111D01*
X101539008Y-138386035D01*
X101539407Y-138385764D01*
X101650320Y-138328517D01*
X101693810Y-138284569D01*
X101703112Y-138223785D01*
X101674826Y-138168983D01*
X101651401Y-138151776D01*
X101626059Y-138138358D01*
X101624996Y-138136663D01*
X101625932Y-138134896D01*
X101627672Y-138134708D01*
X101738238Y-138174514D01*
X101888960Y-138185582D01*
X102037108Y-138155711D01*
X102166855Y-138089601D01*
X102168852Y-138089706D01*
G37*
G36*
X103438852Y-138089706D02*
G01*
X103439760Y-138091488D01*
X103439079Y-138092889D01*
X103438992Y-138092965D01*
X103438593Y-138093236D01*
X103327680Y-138150483D01*
X103284190Y-138194431D01*
X103274888Y-138255215D01*
X103303174Y-138310017D01*
X103326599Y-138327224D01*
X103351941Y-138340642D01*
X103353004Y-138342337D01*
X103352068Y-138344104D01*
X103350328Y-138344292D01*
X103239762Y-138304486D01*
X103089040Y-138293418D01*
X102940892Y-138323289D01*
X102811145Y-138389399D01*
X102809148Y-138389294D01*
X102808240Y-138387512D01*
X102808921Y-138386111D01*
X102809008Y-138386035D01*
X102809407Y-138385764D01*
X102920320Y-138328517D01*
X102963810Y-138284569D01*
X102973112Y-138223785D01*
X102944826Y-138168983D01*
X102921401Y-138151776D01*
X102896059Y-138138358D01*
X102894996Y-138136663D01*
X102895932Y-138134896D01*
X102897672Y-138134708D01*
X103008238Y-138174514D01*
X103158960Y-138185582D01*
X103307108Y-138155711D01*
X103436855Y-138089601D01*
X103438852Y-138089706D01*
G37*
G36*
X99628852Y-138089706D02*
G01*
X99629760Y-138091488D01*
X99629079Y-138092889D01*
X99628992Y-138092965D01*
X99628593Y-138093236D01*
X99517680Y-138150483D01*
X99474190Y-138194431D01*
X99464888Y-138255215D01*
X99493174Y-138310017D01*
X99516599Y-138327224D01*
X99541941Y-138340642D01*
X99543004Y-138342337D01*
X99542068Y-138344104D01*
X99540328Y-138344292D01*
X99429762Y-138304486D01*
X99279040Y-138293418D01*
X99130892Y-138323289D01*
X99001145Y-138389399D01*
X98999148Y-138389294D01*
X98998240Y-138387512D01*
X98998921Y-138386111D01*
X98999008Y-138386035D01*
X98999407Y-138385764D01*
X99110320Y-138328517D01*
X99153810Y-138284569D01*
X99163112Y-138223785D01*
X99134826Y-138168983D01*
X99111401Y-138151776D01*
X99086059Y-138138358D01*
X99084996Y-138136663D01*
X99085932Y-138134896D01*
X99087672Y-138134708D01*
X99198238Y-138174514D01*
X99348960Y-138185582D01*
X99497108Y-138155711D01*
X99626855Y-138089601D01*
X99628852Y-138089706D01*
G37*
G36*
X109788852Y-138089706D02*
G01*
X109789760Y-138091488D01*
X109789079Y-138092889D01*
X109788992Y-138092965D01*
X109788593Y-138093236D01*
X109677680Y-138150483D01*
X109634190Y-138194431D01*
X109624888Y-138255215D01*
X109653174Y-138310017D01*
X109676599Y-138327224D01*
X109701941Y-138340642D01*
X109703004Y-138342337D01*
X109702068Y-138344104D01*
X109700328Y-138344292D01*
X109589762Y-138304486D01*
X109439040Y-138293418D01*
X109290892Y-138323289D01*
X109161145Y-138389399D01*
X109159148Y-138389294D01*
X109158240Y-138387512D01*
X109158921Y-138386111D01*
X109159008Y-138386035D01*
X109159407Y-138385764D01*
X109270320Y-138328517D01*
X109313810Y-138284569D01*
X109323112Y-138223785D01*
X109294826Y-138168983D01*
X109271401Y-138151776D01*
X109246059Y-138138358D01*
X109244996Y-138136663D01*
X109245932Y-138134896D01*
X109247672Y-138134708D01*
X109358238Y-138174514D01*
X109508960Y-138185582D01*
X109657108Y-138155711D01*
X109786855Y-138089601D01*
X109788852Y-138089706D01*
G37*
G36*
X104708852Y-138089706D02*
G01*
X104709760Y-138091488D01*
X104709079Y-138092889D01*
X104708992Y-138092965D01*
X104708593Y-138093236D01*
X104597680Y-138150483D01*
X104554190Y-138194431D01*
X104544888Y-138255215D01*
X104573174Y-138310017D01*
X104596599Y-138327224D01*
X104621941Y-138340642D01*
X104623004Y-138342337D01*
X104622068Y-138344104D01*
X104620328Y-138344292D01*
X104509762Y-138304486D01*
X104359040Y-138293418D01*
X104210892Y-138323289D01*
X104081145Y-138389399D01*
X104079148Y-138389294D01*
X104078240Y-138387512D01*
X104078921Y-138386111D01*
X104079008Y-138386035D01*
X104079407Y-138385764D01*
X104190320Y-138328517D01*
X104233810Y-138284569D01*
X104243112Y-138223785D01*
X104214826Y-138168983D01*
X104191401Y-138151776D01*
X104166059Y-138138358D01*
X104164996Y-138136663D01*
X104165932Y-138134896D01*
X104167672Y-138134708D01*
X104278238Y-138174514D01*
X104428960Y-138185582D01*
X104577108Y-138155711D01*
X104706855Y-138089601D01*
X104708852Y-138089706D01*
G37*
G36*
X107248852Y-138089706D02*
G01*
X107249760Y-138091488D01*
X107249079Y-138092889D01*
X107248992Y-138092965D01*
X107248593Y-138093236D01*
X107137680Y-138150483D01*
X107094190Y-138194431D01*
X107084888Y-138255215D01*
X107113174Y-138310017D01*
X107136599Y-138327224D01*
X107161941Y-138340642D01*
X107163004Y-138342337D01*
X107162068Y-138344104D01*
X107160328Y-138344292D01*
X107049762Y-138304486D01*
X106899040Y-138293418D01*
X106750892Y-138323289D01*
X106621145Y-138389399D01*
X106619148Y-138389294D01*
X106618240Y-138387512D01*
X106618921Y-138386111D01*
X106619008Y-138386035D01*
X106619407Y-138385764D01*
X106730320Y-138328517D01*
X106773810Y-138284569D01*
X106783112Y-138223785D01*
X106754826Y-138168983D01*
X106731401Y-138151776D01*
X106706059Y-138138358D01*
X106704996Y-138136663D01*
X106705932Y-138134896D01*
X106707672Y-138134708D01*
X106818238Y-138174514D01*
X106968960Y-138185582D01*
X107117108Y-138155711D01*
X107246855Y-138089601D01*
X107248852Y-138089706D01*
G37*
G36*
X112328852Y-138089706D02*
G01*
X112329760Y-138091488D01*
X112329079Y-138092889D01*
X112328992Y-138092965D01*
X112328593Y-138093236D01*
X112217680Y-138150483D01*
X112174190Y-138194431D01*
X112164888Y-138255215D01*
X112193174Y-138310017D01*
X112216599Y-138327224D01*
X112241941Y-138340642D01*
X112243004Y-138342337D01*
X112242068Y-138344104D01*
X112240328Y-138344292D01*
X112129762Y-138304486D01*
X111979040Y-138293418D01*
X111830892Y-138323289D01*
X111701145Y-138389399D01*
X111699148Y-138389294D01*
X111698240Y-138387512D01*
X111698921Y-138386111D01*
X111699008Y-138386035D01*
X111699407Y-138385764D01*
X111810320Y-138328517D01*
X111853810Y-138284569D01*
X111863112Y-138223785D01*
X111834826Y-138168983D01*
X111811401Y-138151776D01*
X111786059Y-138138358D01*
X111784996Y-138136663D01*
X111785932Y-138134896D01*
X111787672Y-138134708D01*
X111898238Y-138174514D01*
X112048960Y-138185582D01*
X112197108Y-138155711D01*
X112326855Y-138089601D01*
X112328852Y-138089706D01*
G37*
G36*
X105978852Y-138089706D02*
G01*
X105979760Y-138091488D01*
X105979079Y-138092889D01*
X105978992Y-138092965D01*
X105978593Y-138093236D01*
X105867680Y-138150483D01*
X105824190Y-138194431D01*
X105814888Y-138255215D01*
X105843174Y-138310017D01*
X105866599Y-138327224D01*
X105891941Y-138340642D01*
X105893004Y-138342337D01*
X105892068Y-138344104D01*
X105890328Y-138344292D01*
X105779762Y-138304486D01*
X105629040Y-138293418D01*
X105480892Y-138323289D01*
X105351145Y-138389399D01*
X105349148Y-138389294D01*
X105348240Y-138387512D01*
X105348921Y-138386111D01*
X105349008Y-138386035D01*
X105349407Y-138385764D01*
X105460320Y-138328517D01*
X105503810Y-138284569D01*
X105513112Y-138223785D01*
X105484826Y-138168983D01*
X105461401Y-138151776D01*
X105436059Y-138138358D01*
X105434996Y-138136663D01*
X105435932Y-138134896D01*
X105437672Y-138134708D01*
X105548238Y-138174514D01*
X105698960Y-138185582D01*
X105847108Y-138155711D01*
X105976855Y-138089601D01*
X105978852Y-138089706D01*
G37*
G36*
X98358852Y-138089706D02*
G01*
X98359760Y-138091488D01*
X98359079Y-138092889D01*
X98358992Y-138092965D01*
X98358593Y-138093236D01*
X98247680Y-138150483D01*
X98204190Y-138194431D01*
X98194888Y-138255215D01*
X98223174Y-138310017D01*
X98246599Y-138327224D01*
X98271941Y-138340642D01*
X98273004Y-138342337D01*
X98272068Y-138344104D01*
X98270328Y-138344292D01*
X98159762Y-138304486D01*
X98009040Y-138293418D01*
X97860892Y-138323289D01*
X97731145Y-138389399D01*
X97729148Y-138389294D01*
X97728240Y-138387512D01*
X97728921Y-138386111D01*
X97729008Y-138386035D01*
X97729407Y-138385764D01*
X97840320Y-138328517D01*
X97883810Y-138284569D01*
X97893112Y-138223785D01*
X97864826Y-138168983D01*
X97841401Y-138151776D01*
X97816059Y-138138358D01*
X97814996Y-138136663D01*
X97815932Y-138134896D01*
X97817672Y-138134708D01*
X97928238Y-138174514D01*
X98078960Y-138185582D01*
X98227108Y-138155711D01*
X98356855Y-138089601D01*
X98358852Y-138089706D01*
G37*
G36*
X111058852Y-138089706D02*
G01*
X111059760Y-138091488D01*
X111059079Y-138092889D01*
X111058992Y-138092965D01*
X111058593Y-138093236D01*
X110947680Y-138150483D01*
X110904190Y-138194431D01*
X110894888Y-138255215D01*
X110923174Y-138310017D01*
X110946599Y-138327224D01*
X110971941Y-138340642D01*
X110973004Y-138342337D01*
X110972068Y-138344104D01*
X110970328Y-138344292D01*
X110859762Y-138304486D01*
X110709040Y-138293418D01*
X110560892Y-138323289D01*
X110431145Y-138389399D01*
X110429148Y-138389294D01*
X110428240Y-138387512D01*
X110428921Y-138386111D01*
X110429008Y-138386035D01*
X110429407Y-138385764D01*
X110540320Y-138328517D01*
X110583810Y-138284569D01*
X110593112Y-138223785D01*
X110564826Y-138168983D01*
X110541401Y-138151776D01*
X110516059Y-138138358D01*
X110514996Y-138136663D01*
X110515932Y-138134896D01*
X110517672Y-138134708D01*
X110628238Y-138174514D01*
X110778960Y-138185582D01*
X110927108Y-138155711D01*
X111056855Y-138089601D01*
X111058852Y-138089706D01*
G37*
G36*
X100898852Y-138089706D02*
G01*
X100899760Y-138091488D01*
X100899079Y-138092889D01*
X100898992Y-138092965D01*
X100898593Y-138093236D01*
X100787680Y-138150483D01*
X100744190Y-138194431D01*
X100734888Y-138255215D01*
X100763174Y-138310017D01*
X100786599Y-138327224D01*
X100811941Y-138340642D01*
X100813004Y-138342337D01*
X100812068Y-138344104D01*
X100810328Y-138344292D01*
X100699762Y-138304486D01*
X100549040Y-138293418D01*
X100400892Y-138323289D01*
X100271145Y-138389399D01*
X100269148Y-138389294D01*
X100268240Y-138387512D01*
X100268921Y-138386111D01*
X100269008Y-138386035D01*
X100269407Y-138385764D01*
X100380320Y-138328517D01*
X100423810Y-138284569D01*
X100433112Y-138223785D01*
X100404826Y-138168983D01*
X100381401Y-138151776D01*
X100356059Y-138138358D01*
X100354996Y-138136663D01*
X100355932Y-138134896D01*
X100357672Y-138134708D01*
X100468238Y-138174514D01*
X100618960Y-138185582D01*
X100767108Y-138155711D01*
X100896855Y-138089601D01*
X100898852Y-138089706D01*
G37*
G36*
X112762009Y-136684330D02*
G01*
X112762369Y-136686138D01*
X112733175Y-136786626D01*
X112727200Y-136867978D01*
X112727200Y-137629768D01*
X112746244Y-137768791D01*
X112745489Y-137770642D01*
X112743507Y-137770914D01*
X112742702Y-137770312D01*
X112703985Y-137721985D01*
X112644672Y-137705759D01*
X112587096Y-137727515D01*
X112556467Y-137769211D01*
X112539415Y-137812947D01*
X112537855Y-137814197D01*
X112535991Y-137813470D01*
X112535631Y-137811662D01*
X112564825Y-137711174D01*
X112570800Y-137629822D01*
X112570800Y-136868032D01*
X112551756Y-136729009D01*
X112552511Y-136727158D01*
X112554493Y-136726886D01*
X112555298Y-136727488D01*
X112594015Y-136775815D01*
X112653328Y-136792041D01*
X112710904Y-136770285D01*
X112741533Y-136728589D01*
X112758585Y-136684853D01*
X112760145Y-136683603D01*
X112762009Y-136684330D01*
G37*
G36*
X101332009Y-136684330D02*
G01*
X101332369Y-136686138D01*
X101303175Y-136786626D01*
X101297200Y-136867978D01*
X101297200Y-137629768D01*
X101316244Y-137768791D01*
X101315489Y-137770642D01*
X101313507Y-137770914D01*
X101312702Y-137770312D01*
X101273985Y-137721985D01*
X101214672Y-137705759D01*
X101157096Y-137727515D01*
X101126467Y-137769211D01*
X101109415Y-137812947D01*
X101107855Y-137814197D01*
X101105991Y-137813470D01*
X101105631Y-137811662D01*
X101134825Y-137711174D01*
X101140800Y-137629822D01*
X101140800Y-136868032D01*
X101121756Y-136729009D01*
X101122511Y-136727158D01*
X101124493Y-136726886D01*
X101125298Y-136727488D01*
X101164015Y-136775815D01*
X101223328Y-136792041D01*
X101280904Y-136770285D01*
X101311533Y-136728589D01*
X101328585Y-136684853D01*
X101330145Y-136683603D01*
X101332009Y-136684330D01*
G37*
G36*
X111492009Y-136684330D02*
G01*
X111492369Y-136686138D01*
X111463175Y-136786626D01*
X111457200Y-136867978D01*
X111457200Y-137629768D01*
X111476244Y-137768791D01*
X111475489Y-137770642D01*
X111473507Y-137770914D01*
X111472702Y-137770312D01*
X111433985Y-137721985D01*
X111374672Y-137705759D01*
X111317096Y-137727515D01*
X111286467Y-137769211D01*
X111269415Y-137812947D01*
X111267855Y-137814197D01*
X111265991Y-137813470D01*
X111265631Y-137811662D01*
X111294825Y-137711174D01*
X111300800Y-137629822D01*
X111300800Y-136868032D01*
X111281756Y-136729009D01*
X111282511Y-136727158D01*
X111284493Y-136726886D01*
X111285298Y-136727488D01*
X111324015Y-136775815D01*
X111383328Y-136792041D01*
X111440904Y-136770285D01*
X111471533Y-136728589D01*
X111488585Y-136684853D01*
X111490145Y-136683603D01*
X111492009Y-136684330D01*
G37*
G36*
X106412009Y-136684330D02*
G01*
X106412369Y-136686138D01*
X106383175Y-136786626D01*
X106377200Y-136867978D01*
X106377200Y-137629768D01*
X106396244Y-137768791D01*
X106395489Y-137770642D01*
X106393507Y-137770914D01*
X106392702Y-137770312D01*
X106353985Y-137721985D01*
X106294672Y-137705759D01*
X106237096Y-137727515D01*
X106206467Y-137769211D01*
X106189415Y-137812947D01*
X106187855Y-137814197D01*
X106185991Y-137813470D01*
X106185631Y-137811662D01*
X106214825Y-137711174D01*
X106220800Y-137629822D01*
X106220800Y-136868032D01*
X106201756Y-136729009D01*
X106202511Y-136727158D01*
X106204493Y-136726886D01*
X106205298Y-136727488D01*
X106244015Y-136775815D01*
X106303328Y-136792041D01*
X106360904Y-136770285D01*
X106391533Y-136728589D01*
X106408585Y-136684853D01*
X106410145Y-136683603D01*
X106412009Y-136684330D01*
G37*
G36*
X102602009Y-136684330D02*
G01*
X102602369Y-136686138D01*
X102573175Y-136786626D01*
X102567200Y-136867978D01*
X102567200Y-137629768D01*
X102586244Y-137768791D01*
X102585489Y-137770642D01*
X102583507Y-137770914D01*
X102582702Y-137770312D01*
X102543985Y-137721985D01*
X102484672Y-137705759D01*
X102427096Y-137727515D01*
X102396467Y-137769211D01*
X102379415Y-137812947D01*
X102377855Y-137814197D01*
X102375991Y-137813470D01*
X102375631Y-137811662D01*
X102404825Y-137711174D01*
X102410800Y-137629822D01*
X102410800Y-136868032D01*
X102391756Y-136729009D01*
X102392511Y-136727158D01*
X102394493Y-136726886D01*
X102395298Y-136727488D01*
X102434015Y-136775815D01*
X102493328Y-136792041D01*
X102550904Y-136770285D01*
X102581533Y-136728589D01*
X102598585Y-136684853D01*
X102600145Y-136683603D01*
X102602009Y-136684330D01*
G37*
G36*
X105142009Y-136684330D02*
G01*
X105142369Y-136686138D01*
X105113175Y-136786626D01*
X105107200Y-136867978D01*
X105107200Y-137629768D01*
X105126244Y-137768791D01*
X105125489Y-137770642D01*
X105123507Y-137770914D01*
X105122702Y-137770312D01*
X105083985Y-137721985D01*
X105024672Y-137705759D01*
X104967096Y-137727515D01*
X104936467Y-137769211D01*
X104919415Y-137812947D01*
X104917855Y-137814197D01*
X104915991Y-137813470D01*
X104915631Y-137811662D01*
X104944825Y-137711174D01*
X104950800Y-137629822D01*
X104950800Y-136868032D01*
X104931756Y-136729009D01*
X104932511Y-136727158D01*
X104934493Y-136726886D01*
X104935298Y-136727488D01*
X104974015Y-136775815D01*
X105033328Y-136792041D01*
X105090904Y-136770285D01*
X105121533Y-136728589D01*
X105138585Y-136684853D01*
X105140145Y-136683603D01*
X105142009Y-136684330D01*
G37*
G36*
X100062009Y-136684330D02*
G01*
X100062369Y-136686138D01*
X100033175Y-136786626D01*
X100027200Y-136867978D01*
X100027200Y-137629768D01*
X100046244Y-137768791D01*
X100045489Y-137770642D01*
X100043507Y-137770914D01*
X100042702Y-137770312D01*
X100003985Y-137721985D01*
X99944672Y-137705759D01*
X99887096Y-137727515D01*
X99856467Y-137769211D01*
X99839415Y-137812947D01*
X99837855Y-137814197D01*
X99835991Y-137813470D01*
X99835631Y-137811662D01*
X99864825Y-137711174D01*
X99870800Y-137629822D01*
X99870800Y-136868032D01*
X99851756Y-136729009D01*
X99852511Y-136727158D01*
X99854493Y-136726886D01*
X99855298Y-136727488D01*
X99894015Y-136775815D01*
X99953328Y-136792041D01*
X100010904Y-136770285D01*
X100041533Y-136728589D01*
X100058585Y-136684853D01*
X100060145Y-136683603D01*
X100062009Y-136684330D01*
G37*
G36*
X98792009Y-136684330D02*
G01*
X98792369Y-136686138D01*
X98763175Y-136786626D01*
X98757200Y-136867978D01*
X98757200Y-137629768D01*
X98776244Y-137768791D01*
X98775489Y-137770642D01*
X98773507Y-137770914D01*
X98772702Y-137770312D01*
X98733985Y-137721985D01*
X98674672Y-137705759D01*
X98617096Y-137727515D01*
X98586467Y-137769211D01*
X98569415Y-137812947D01*
X98567855Y-137814197D01*
X98565991Y-137813470D01*
X98565631Y-137811662D01*
X98594825Y-137711174D01*
X98600800Y-137629822D01*
X98600800Y-136868032D01*
X98581756Y-136729009D01*
X98582511Y-136727158D01*
X98584493Y-136726886D01*
X98585298Y-136727488D01*
X98624015Y-136775815D01*
X98683328Y-136792041D01*
X98740904Y-136770285D01*
X98771533Y-136728589D01*
X98788585Y-136684853D01*
X98790145Y-136683603D01*
X98792009Y-136684330D01*
G37*
G36*
X108952009Y-136684330D02*
G01*
X108952369Y-136686138D01*
X108923175Y-136786626D01*
X108917200Y-136867978D01*
X108917200Y-137629768D01*
X108936244Y-137768791D01*
X108935489Y-137770642D01*
X108933507Y-137770914D01*
X108932702Y-137770312D01*
X108893985Y-137721985D01*
X108834672Y-137705759D01*
X108777096Y-137727515D01*
X108746467Y-137769211D01*
X108729415Y-137812947D01*
X108727855Y-137814197D01*
X108725991Y-137813470D01*
X108725631Y-137811662D01*
X108754825Y-137711174D01*
X108760800Y-137629822D01*
X108760800Y-136868032D01*
X108741756Y-136729009D01*
X108742511Y-136727158D01*
X108744493Y-136726886D01*
X108745298Y-136727488D01*
X108784015Y-136775815D01*
X108843328Y-136792041D01*
X108900904Y-136770285D01*
X108931533Y-136728589D01*
X108948585Y-136684853D01*
X108950145Y-136683603D01*
X108952009Y-136684330D01*
G37*
G36*
X103872009Y-136684330D02*
G01*
X103872369Y-136686138D01*
X103843175Y-136786626D01*
X103837200Y-136867978D01*
X103837200Y-137629768D01*
X103856244Y-137768791D01*
X103855489Y-137770642D01*
X103853507Y-137770914D01*
X103852702Y-137770312D01*
X103813985Y-137721985D01*
X103754672Y-137705759D01*
X103697096Y-137727515D01*
X103666467Y-137769211D01*
X103649415Y-137812947D01*
X103647855Y-137814197D01*
X103645991Y-137813470D01*
X103645631Y-137811662D01*
X103674825Y-137711174D01*
X103680800Y-137629822D01*
X103680800Y-136868032D01*
X103661756Y-136729009D01*
X103662511Y-136727158D01*
X103664493Y-136726886D01*
X103665298Y-136727488D01*
X103704015Y-136775815D01*
X103763328Y-136792041D01*
X103820904Y-136770285D01*
X103851533Y-136728589D01*
X103868585Y-136684853D01*
X103870145Y-136683603D01*
X103872009Y-136684330D01*
G37*
G36*
X110222009Y-136684330D02*
G01*
X110222369Y-136686138D01*
X110193175Y-136786626D01*
X110187200Y-136867978D01*
X110187200Y-137629768D01*
X110206244Y-137768791D01*
X110205489Y-137770642D01*
X110203507Y-137770914D01*
X110202702Y-137770312D01*
X110163985Y-137721985D01*
X110104672Y-137705759D01*
X110047096Y-137727515D01*
X110016467Y-137769211D01*
X109999415Y-137812947D01*
X109997855Y-137814197D01*
X109995991Y-137813470D01*
X109995631Y-137811662D01*
X110024825Y-137711174D01*
X110030800Y-137629822D01*
X110030800Y-136868032D01*
X110011756Y-136729009D01*
X110012511Y-136727158D01*
X110014493Y-136726886D01*
X110015298Y-136727488D01*
X110054015Y-136775815D01*
X110113328Y-136792041D01*
X110170904Y-136770285D01*
X110201533Y-136728589D01*
X110218585Y-136684853D01*
X110220145Y-136683603D01*
X110222009Y-136684330D01*
G37*
G36*
X107682009Y-136684330D02*
G01*
X107682369Y-136686138D01*
X107653175Y-136786626D01*
X107647200Y-136867978D01*
X107647200Y-137629768D01*
X107666244Y-137768791D01*
X107665489Y-137770642D01*
X107663507Y-137770914D01*
X107662702Y-137770312D01*
X107623985Y-137721985D01*
X107564672Y-137705759D01*
X107507096Y-137727515D01*
X107476467Y-137769211D01*
X107459415Y-137812947D01*
X107457855Y-137814197D01*
X107455991Y-137813470D01*
X107455631Y-137811662D01*
X107484825Y-137711174D01*
X107490800Y-137629822D01*
X107490800Y-136868032D01*
X107471756Y-136729009D01*
X107472511Y-136727158D01*
X107474493Y-136726886D01*
X107475298Y-136727488D01*
X107514015Y-136775815D01*
X107573328Y-136792041D01*
X107630904Y-136770285D01*
X107661533Y-136728589D01*
X107678585Y-136684853D01*
X107680145Y-136683603D01*
X107682009Y-136684330D01*
G37*
M02*
