M48
; DRILL file {KiCad (6.0.1)} date Sun Oct 16 00:11:53 2022
; FORMAT={-:-/ absolute / inch / decimal}
; #@! TF.CreationDate,2022-10-16T00:11:53-04:00
; #@! TF.GenerationSoftware,Kicad,Pcbnew,(6.0.1)
; #@! TF.FileFunction,Plated,1,2,PTH
FMAT,2
INCH
; #@! TA.AperFunction,Plated,PTH,ViaDrill
T1C0.0150
; #@! TA.AperFunction,Plated,PTH,ComponentDrill
T2C0.0280
; #@! TA.AperFunction,Plated,PTH,ViaDrill
T3C0.0310
; #@! TA.AperFunction,Plated,PTH,ComponentDrill
T4C0.0394
; #@! TA.AperFunction,Plated,PTH,ComponentDrill
T5C0.0400
; #@! TA.AperFunction,Plated,PTH,ComponentDrill
T6C0.0630
; #@! TA.AperFunction,Plated,PTH,ComponentDrill
T7C0.1440
%
G90
G05
T1
X3.56Y-5.16
X3.56Y-5.28
X3.56Y-5.405
X3.755Y-5.16
X3.755Y-5.28
X3.755Y-5.405
X3.785Y-4.42
X3.845Y-2.935
X3.845Y-3.03
X3.97Y-4.325
X4.06Y-4.415
X4.095Y-4.385
X4.12Y-5.15
X4.13Y-4.415
X4.145Y-5.115
X4.155Y-5.215
X4.165Y-4.385
X4.205Y-5.115
X4.235Y-3.91
X4.26Y-5.115
X4.28Y-4.44
X4.282Y-5.592
X4.34Y-4.475
X4.355Y-3.91
X4.388Y-4.034
X4.398Y-3.77
X4.415Y-4.44
X4.445Y-2.91
X4.445Y-3.0
X4.465Y-4.475
X4.475Y-3.9085
X4.505Y-3.03
X4.51Y-4.0335
X4.515Y-4.44
X4.57Y-4.475
X4.595Y-3.9069
X4.65Y-5.285
X4.65Y-5.485
X4.74Y-3.9069
X4.755Y-4.475
X4.755Y-5.17
X4.814Y-5.26
X4.814Y-5.46
X4.814Y-5.628
X4.815Y-4.44
X4.815Y-5.17
X4.825Y-4.035
X4.86Y-3.9069
X4.87Y-4.475
X4.875Y-5.295
X4.876Y-5.536
X4.876Y-5.63
X4.915Y-4.44
X4.94Y-5.536
X4.94Y-5.628
X4.945Y-4.035
X4.96Y-5.455
X4.98Y-3.9069
X5.015Y-5.53
X5.02Y-4.475
X5.165Y-3.875
X5.19Y-2.965
X5.19Y-3.22
X5.31Y-3.59
X5.31Y-3.642
X5.31Y-3.695
X5.32Y-3.22
X5.325Y-2.965
X5.445Y-2.97
X5.445Y-3.09
X5.455Y-2.4875
X5.5Y-2.97
X5.5Y-3.145
X5.535Y-4.02
X5.535Y-4.065
X5.555Y-3.09
X5.595Y-2.825
X5.635Y-2.83
X5.66Y-3.895
X5.675Y-3.41
X5.675Y-3.51
X5.675Y-3.62
X5.675Y-4.265
X5.675Y-4.365
X5.675Y-4.515
X5.71Y-5.53
X5.765Y-2.79
X5.795Y-3.045
X5.795Y-3.235
X5.795Y-3.335
X5.8Y-2.4575
X5.81Y-2.83
X5.86Y-2.97
X5.86Y-3.235
X5.86Y-3.335
X5.875Y-2.885
X5.972Y-2.745
X6.025Y-2.745
X6.145Y-4.305
X6.19Y-4.35
T2
X3.86Y-5.4175
X3.86Y-5.4675
X3.91Y-5.4175
X3.91Y-5.4675
X3.96Y-5.4175
X3.96Y-5.4675
X4.01Y-5.4175
X4.01Y-5.4675
X4.06Y-5.4175
X4.06Y-5.4675
X4.11Y-5.4175
X4.11Y-5.4675
X4.16Y-5.4175
X4.16Y-5.4675
X4.21Y-5.4175
X4.21Y-5.4675
X4.26Y-5.4175
X4.26Y-5.4675
X4.31Y-5.4175
X4.31Y-5.4675
X4.36Y-5.4175
X4.36Y-5.4675
X4.41Y-5.4175
X4.41Y-5.4675
X4.46Y-5.4175
X4.46Y-5.4675
T3
X4.616Y-5.418
X5.254Y-2.966
X5.254Y-3.222
X5.255Y-3.725
X5.48Y-5.1375
X5.48Y-5.2475
T4
X3.875Y-3.4775
X3.875Y-3.5775
X3.875Y-3.6775
X3.875Y-3.7775
X3.875Y-3.8775
X3.875Y-3.9775
X3.875Y-4.0775
X3.875Y-4.1775
X3.875Y-4.2775
X3.875Y-4.3775
X3.875Y-4.4775
X4.2671Y-4.2698
X4.2671Y-4.3698
X4.3671Y-4.2698
X4.3671Y-4.3698
X4.4671Y-4.2698
X4.4671Y-4.3698
X4.5671Y-4.2698
X4.5671Y-4.3698
X4.7671Y-4.2698
X4.7671Y-4.3698
X4.8671Y-4.2698
X4.8671Y-4.3698
X4.94Y-5.3875
X4.9671Y-4.2698
X4.9671Y-4.3698
X5.04Y-5.3875
X5.0671Y-4.2698
X5.0671Y-4.3698
X5.145Y-3.39
X5.145Y-3.49
X5.485Y-3.2625
X5.485Y-3.3625
X5.485Y-3.4625
X5.485Y-3.5625
X5.485Y-4.2625
X5.485Y-4.3625
X5.485Y-4.4625
X5.485Y-4.5625
X5.585Y-3.2625
X5.585Y-3.3625
X5.585Y-3.4625
X5.585Y-3.5625
X5.585Y-4.2625
X5.585Y-4.3625
X5.585Y-4.4625
X5.585Y-4.5625
T5
X4.375Y-2.3425
X4.375Y-2.4425
X4.375Y-2.5425
X4.375Y-2.6425
X4.375Y-2.7425
X4.375Y-2.8425
X4.375Y-2.9425
X4.375Y-3.0425
X4.375Y-3.1425
X4.375Y-3.2425
X4.375Y-3.3425
X4.375Y-3.4425
X4.375Y-3.5425
X4.375Y-3.6425
X4.475Y-3.6425
X4.575Y-3.6425
X4.675Y-3.6425
X4.775Y-3.6425
X4.875Y-2.4425
X4.875Y-2.6425
X4.875Y-2.7425
X4.875Y-2.8425
X4.875Y-3.6425
X4.975Y-2.3425
X4.975Y-2.4425
X4.975Y-2.5425
X4.975Y-2.6425
X4.975Y-2.7425
X4.975Y-2.8425
X4.975Y-2.9425
X4.975Y-3.0425
X4.975Y-3.1425
X4.975Y-3.2425
X4.975Y-3.3425
X4.975Y-3.4425
X4.975Y-3.5425
X4.975Y-3.6425
T6
X3.5Y-2.8775
X3.5Y-3.0775
X3.5Y-3.2775
X3.5Y-3.4775
X3.5Y-3.6775
X3.5Y-3.8775
X3.5Y-4.0775
X3.5Y-4.2775
X3.5Y-4.4775
X3.5Y-4.6775
X3.5Y-4.8775
X3.5Y-5.0775
X3.7059Y-2.675
X3.968Y-4.78
X4.0059Y-2.675
X4.168Y-4.78
X4.368Y-4.78
X4.568Y-4.78
X4.768Y-4.78
X4.968Y-4.78
X5.168Y-4.78
X5.33Y-5.3875
X5.368Y-4.78
X5.625Y-5.3875
X6.05Y-2.8775
X6.05Y-3.2775
X6.05Y-3.4775
X6.05Y-3.8775
X6.05Y-4.0775
X6.05Y-4.2775
X6.05Y-4.4775
X6.05Y-4.8775
T7
X3.275Y-2.475
X3.275Y-5.475
X6.275Y-2.475
X6.275Y-5.475
T0
M30
